<svg version="1.1" id="mbs-nyc-block" xmlns="http://www.w3.org/2000/svg" xmlns:xlink="http://www.w3.org/1999/xlink" x="0px" y="0px" viewBox="0 0 820 240" xml:space="preserve">
<style type="text/css">
	.letter{
		fill: none;
		stroke: rgba(0,0,0,.7);
		stroke-width: 8;
	}
</style>
	<polygon class="letter" points="10.2,213.2 8.2,12.2 75.2,14.2 67.2,116.2 84.2,14.2 144.2,12.2 141.2,216.2 82.2,217.2 78.2,96.2 
	75.5,156.5 71.5,133.5 68.2,214.2 "/>
	<polygon class="letter" points="371.7,21.6 260.6,18 261.5,123.7 328.9,125.5 261.5,130.9 261.5,221.1 382.7,223.9 372.6,110.9 
	333.5,115.5 369.9,103.6 "/>
	<polygon class="letter" points="452,220.7 452.9,9.3 523.1,15.7 524.9,62.2 531.3,13.9 584.1,13.9 585,220.7 523.1,219.8 508.5,173.4 
	514.9,217.1 "/>
	<polygon class="letter" points="586.4,22.6 591.9,227.6 662.1,228.5 675.7,100.9 705.9,23.5 650.2,22.6 633.8,58.1 641.1,21.7 "/>
	<polygon class="letter" points="808.9,40 692.3,37.3 681.4,230.4 809.8,236.8 808.9,128.4 751.5,125.7 803.4,121.1 "/>
	<path class="letter" d="M205,109l49.7-3.6L256,7.2l-109.2,6.1l-1.2,200.1l111.6,2.4v-99.5L205,109z M192.6,54.9l21.1-1.5l-0.3,3L192,57
	L192.6,54.9z M212,161.2l-20.5,0.3l0.3-2.4h20.5L212,161.2z"/>
	<polygon class="letter" points="384.9,125.8 388.8,215.5 447.3,214.2 446,132.3 "/>
</svg>
